<?xml version="1.0" encoding="UTF-8" standalone="no"?>
<!-- Created with Inkscape (http://www.inkscape.org/) -->

<svg
   width="554.4"
   height="649.6"
   version="1.1"
   viewBox="0 0 554.4 649.6"
   id="svg93"
   sodipodi:docname="foxINC.svg"
   inkscape:version="1.1.2 (0a00cf5339, 2022-02-04)"
   xmlns:inkscape="http://www.inkscape.org/namespaces/inkscape"
   xmlns:sodipodi="http://sodipodi.sourceforge.net/DTD/sodipodi-0.dtd"
   xmlns="http://www.w3.org/2000/svg"
   xmlns:svg="http://www.w3.org/2000/svg"
   xmlns:rdf="http://www.w3.org/1999/02/22-rdf-syntax-ns#"
   xmlns:cc="http://creativecommons.org/ns#"
   xmlns:dc="http://purl.org/dc/elements/1.1/">
  <sodipodi:namedview
     id="namedview6"
     pagecolor="#ffffff"
     bordercolor="#666666"
     borderopacity="1.0"
     inkscape:pageshadow="2"
     inkscape:pageopacity="0.0"
     inkscape:pagecheckerboard="0"
     showgrid="false"
     inkscape:zoom="1.3839286"
     inkscape:cx="270.96774"
     inkscape:cy="315.40645"
     inkscape:window-width="2560"
     inkscape:window-height="1324"
     inkscape:window-x="1920"
     inkscape:window-y="27"
     inkscape:window-maximized="1"
     inkscape:current-layer="svg93" />
  <defs
     id="defs97" />
  <metadata
     id="metadata89">
    <rdf:RDF>
      <cc:Work
         rdf:about="">
        <dc:format>image/svg+xml</dc:format>
        <dc:type
           rdf:resource="http://purl.org/dc/dcmitype/StillImage" />
      </cc:Work>
    </rdf:RDF>
  </metadata>
  <path
     id="path91"
     d="m 524.81184,22.736744 -14.71486,8.70702 -12.78124,8.27344 -35.17578,23.85156 -30.6836,22.51564 -24.90234,18.355456 -54.63282,45.28906 -28.79686,28.96876 -16.30078,20.25 v 1.63672 l 12.53514,-10.20314 28.33594,-17.125 11.9922,-6.5 16.11718,-7.53906 15.48828,-5.3164 10.4375,-2.13672 1.00782,0.83984 -9.875,19.85156 -2.875,9.09376 -2.8711,9.08984 0.082,20.91016 2.77734,9.2578 2.77344,9.25392 8.71092,15.5 13.59766,16.5625 13.875,11.98046 -0.58202,0.20312 -25.07032,13.95314 -18.52734,12.24608 -21.64844,18.32814 -19.86328,20.0039 -13.28126,15.45702 -10.80468,13.63672 -19.66406,27.27736 -14.70312,22.27342 h -17.8906 l -3.61328,-5.91014 -8.32812,-12.72658 -12.84766,-19.09374 -15.04686,-20.0039 -16.08204,-19.09376 -11.85156,-12.3789 -21.34376,-19.4414 -16.46484,-12.52344 -17.4414,-11.28908 -19.19922,-9.71874 -1.22656,-1.65234 11.86718,-10.27734 9.23438,-9.47266 10.96874,-15.90234 6.33986,-13.3125 3.26172,-16.76954 0.008,-14.76562 -1.60156,-7.6172 -1.60156,-7.62108 -6.42968,-14.54688 -5.625,-10.50782 v -1.05858 l 3.89452,0.60546 3.89062,0.60938 16.73828,5.57422 14.70314,6.16016 27.5664,15.55078 17.67968,11.17968 11.44532,8.97266 v -1.32032 l -4.05468,-5.15234 -4.05078,-5.15624 -10.8711,-12.73048 -22.84376,-22.72656 -13.15624,-11.82032 -36.03516,-30.01172 -22.88672,-17.421856 -31.60938,-23.54298 -32.699216,-22.80078 -15.2578,-9.85546 -23.84766,-14.97656 -0.83204,0.6953 29.09766,36.08594 16.46484,21.82032 6.58986,9.08984 10.26952,15.121096 15.710936,26.70312 4.66798,9.79688 4.66796,9.79296 7.3789,18.59766 5.76172,19.96484 0.60548,9.60156 0.60936,9.60548 -2.52734,12.09374 -6.37108,13.0586 -8.1211,10.22656 -13.257819,11.5586 -13.078117,8.66014 -27.48048,15.375 16.58204,4.27344 18.17578,6.15626 12.339836,5.5625 15.26172,8.22266 18.4922,12.01952 26.1953,21.83594 17.71094,19.07812 20.51954,25.45704 11.78516,16.36328 24.17968,40.0039 13.375,27.27734 6.32422,13.63672 12.67968,32.73048 0.30078,0.20312 h -21.8203 v 3.5664 h 3.64452 c 3.19712,0 6.07512,0.94972 8.63282,2.85156 2.30192,1.90186 3.45312,4.21922 3.45312,6.95314 v 79.70312 c 0,2.37732 -1.1512,4.39838 -3.45312,6.0625 -2.5577,1.54526 -5.4357,2.3164 -8.63282,2.3164 h -3.64452 v 3.20704 0.1796 h 49.10546 v -3.38672 h -3.44922 c -3.325,0 -6.203,-0.77114 -8.63282,-2.3164 -2.30192,-1.66412 -3.45312,-3.68518 -3.45312,-6.0625 v -79.70312 c 0,-2.73392 1.1512,-5.05128 3.45312,-6.95314 2.42982,-1.90184 5.30782,-2.85156 8.63282,-2.85156 h 3.44922 v -3.5664 h -19.59374 l 3.96092,-11.10938 8.6875,-21.8203 7.47266,-16.3672 5.00782,-10 5.0039,-10 21.4336,-36.36718 15.5039,-22.73046 12.32422,-16.3672 16.21484,-18.1836 17.88282,-18.18358 22.6211,-18.21094 16.98436,-10.58594 13.83986,-7.01562 19.3125,-8.21484 25.78124,-7.1797 0.55468,-0.46094 0.55078,-0.46094 -32.33592,-17.70312 -18.21486,-14.72266 -4.79296,-5.57422 -4.79296,-5.57422 -7.3125,-13.39842 -2.48828,-11.96876 0.008,-6.7461 0.004,-6.74218 1.62892,-9.01172 1.6289,-9.01172 1.79296,-5.08202 1.78908,-5.08204 3.61328,-9.08984 3.60936,-9.09376 6.3008,-13.63672 9.95312,-18.18358 8.49218,-13.63672 13.60938,-20.003896 11.26562,-15.45704 37.66798,-47.01954 z m -147.8711,250.179676 -11.8047,3.46484 -14.35936,5.51562 -13.97656,6.83204 -10.35156,8.07422 -1,3.28516 -1.00392,3.28906 -0.72266,2.95312 -0.71874,2.95704 h 4.13672 l 11.03124,-2.73438 10.14454,-4.73046 12,-9.14454 17.36328,-19.14454 -0.3711,-0.30858 z m -201.07422,0.75 -0.50782,0.42578 -0.51172,0.42578 13.14844,14.5547 17.77344,13.9492 10.58594,4.47266 4.08984,0.8047 4.09376,0.80468 6.22656,0.1836 -0.50392,-1.13672 -0.5,-1.13672 -1.80468,-4.57422 -1.80078,-4.57422 -6.73046,-6.8125 -12.66016,-7.17188 -18.19532,-7.91796 z M 72.339184,510.57268 c -7.41732,0 -14.13396,2.97076 -20.14454,8.91406 -5.62692,5.9433 -8.4375,12.78152 -8.4375,20.5078 v 6.77344 h -14.0039 v 5.17188 h 14.0039 v 54.73828 c 0,2.37732 -0.96064,4.39838 -2.8789,6.0625 -2.17404,1.54526 -4.667,2.3164 -7.48048,2.3164 h -3.64452 v 3.20704 0.1796 h 44.69532 v -3.38672 h -3.64454 c -3.325,0 -6.26652,-0.77114 -8.82422,-2.3164 -2.17404,-1.66412 -3.26172,-3.68518 -3.26172,-6.0625 v -54.73828 h 20.14062 v -5.17188 h -20.14062 v -22.64452 c 0,-2.25846 0.76616,-4.2187 2.30078,-5.88282 1.53462,-1.66412 3.45588,-2.4961 5.75782,-2.4961 1.91826,0 3.7721,0.47486 5.5625,1.42578 1.6625,1.0698 3.1313,2.43744 4.41016,4.10156 1.15096,1.90186 2.36568,3.32642 3.64452,4.27736 1.53462,1.30752 3.00734,1.96094 4.41406,1.96094 1.7904,0 3.32272,-0.65342 4.60156,-1.96094 1.40674,-1.0698 2.11328,-2.55518 2.11328,-4.45704 0,-2.85278 -1.98478,-5.3487 -5.9492,-7.48828 -3.58078,-2.02072 -7.9911,-3.03124 -13.23438,-3.03124 z m 410.507796,0.89062 c -17.6481,0 -31.71266,5.2312 -42.19922,15.6914 -10.61442,10.57908 -15.92186,24.48708 -15.92186,41.72266 0,15.92804 5.30744,28.7078 15.92186,38.33594 10.48656,9.50928 24.42408,14.26172 41.81642,14.26172 10.35866,0 19.56826,-1.8425 27.625,-5.52734 8.56828,-3.68486 15.21748,-8.97296 19.94922,-15.8672 l -3.64454,-2.67578 c -5.62692,5.2301 -12.02204,9.2114 -19.1836,11.94532 -7.03366,2.73392 -14.0679,4.10156 -21.10156,4.10156 -12.40482,0 -22.31706,-3.9813 -29.73436,-11.94532 -7.54522,-8.32062 -11.31642,-19.19704 -11.31642,-32.6289 0,-15.09598 3.64416,-27.27924 10.9336,-36.55078 7.03366,-9.15268 16.49734,-13.73048 28.39062,-13.73048 8.05674,0 15.53954,2.61756 22.44532,7.84766 7.03366,5.2301 12.21014,12.2999 15.53516,21.21484 h 4.60546 l -1.53516,-35.66014 h -5.5625 c -0.25576,1.42638 -1.08544,2.49774 -2.49218,3.21094 -1.27886,0.95092 -2.8786,1.42578 -4.79688,1.42578 -1.02308,0 -3.57956,-0.83198 -7.67188,-2.4961 l -2.49608,-0.53516 c -3.96444,-1.4264 -10.4866,-2.14062 -19.56642,-2.14062 z m -181.85156,2.14062 v 3.5664 h 3.64454 c 1.53462,0 4.98822,2.97078 10.35938,8.91408 l 1.72656,1.78514 v 74.52734 c 0,3.44712 -1.21472,6.41788 -3.64454,8.91408 -2.4298,2.49618 -5.24428,3.74608 -8.4414,3.74608 h -3.64454 v 3.20704 0.1796 h 39.70704 v -3.38672 h -3.64454 c -3.325,0 -6.26652,-1.2499 -8.82422,-3.74608 -2.4298,-2.4962 -3.64452,-5.46696 -3.64452,-8.91408 v -65.61328 l 75.0078,83.98048 h 3.64454 v -92.35938 c 0,-2.97164 1.08376,-5.64612 3.25782,-8.02344 2.4298,-2.13958 5.37132,-3.21094 8.82422,-3.21094 h 3.45312 v -3.5664 H 380.4134 v 3.5664 h 3.64452 c 3.19712,0 5.81712,1.07136 7.86328,3.21094 2.42982,2.37732 3.64454,5.0518 3.64454,8.02344 v 59.19532 L 330.5384,513.60384 Z M 124.13214,545.3422 c -10.48654,0 -19.37462,3.56726 -26.664056,10.69922 -7.41732,7.25082 -11.125,15.86682 -11.125,25.85156 0,10.57908 3.70768,19.613 11.125,27.10156 7.289436,7.3697 16.050456,11.0547 26.281256,11.0547 10.74232,0 19.88448,-3.685 27.42968,-11.0547 7.16154,-7.48856 10.74218,-16.52248 10.74218,-27.10156 0,-9.98474 -3.58064,-18.60074 -10.74218,-25.85156 -7.5452,-7.13196 -16.56032,-10.69922 -27.04688,-10.69922 z m 47.95704,1.42578 v 3.7461 c 2.4298,0 4.98628,0.71032 7.67186,2.13672 2.5577,1.54526 4.98714,3.68796 7.28908,6.42188 l 15.53906,22.28514 -19.56642,26.38672 c -1.40672,2.25846 -3.13352,4.04404 -5.17968,5.35156 -2.04616,1.30754 -4.4756,1.96094 -7.28906,1.96094 v 3.20704 0.1796 h 25.70312 v -3.38672 h -3.64452 c -0.63944,0 -1.21504,-0.23938 -1.72658,-0.71484 -0.51152,-0.59432 -0.76562,-1.18692 -0.76562,-1.78124 0,-0.83206 0.127,-1.60712 0.38282,-2.32032 0.25576,-0.7132 0.6408,-1.3666 1.15234,-1.96094 l 14.96094,-21.21484 14.76952,21.21484 c 0.76732,0.83206 1.34292,1.60712 1.72658,2.32032 0.38364,0.7132 0.57812,1.3666 0.57812,1.96094 0,0.59432 -0.44856,1.18692 -1.34376,1.78124 -0.7673,0.47546 -1.79146,0.71484 -3.0703,0.71484 h -3.45312 v 3.38672 h 33.5703 v -3.38672 c -1.53462,0 -3.26142,-0.6534 -5.17968,-1.96094 -1.91828,-1.18866 -3.89916,-2.97424 -5.94532,-5.35156 l -23.01952,-32.98436 11.5078,-15.6875 c 1.91828,-2.73392 4.15716,-4.87662 6.71484,-6.42188 2.5577,-1.4264 5.24514,-2.13672 8.0586,-2.13672 v -3.7461 h -25.70702 v 3.7461 h 3.45312 c 0.63942,0 1.1515,0.1746 1.53516,0.53124 0.38364,0.3566 0.5742,0.77454 0.5742,1.25 0,1.54526 -0.76616,3.68406 -2.30078,6.41798 l -8.24608,11.23438 -7.29298,-11.23438 -1.91796,-3.20704 c -0.51154,-0.83206 -0.76562,-1.36774 -0.76562,-1.60546 0,-0.95094 0.44854,-1.72598 1.34374,-2.32032 0.8952,-0.7132 1.91544,-1.0664 3.0664,-1.0664 h 3.45314 v -3.7461 z m -51.02734,3.7461 c 7.16154,0 13.29866,3.32788 18.41406,9.98438 5.24328,6.65648 7.86718,14.79762 7.86718,24.42578 0,8.32062 -2.04832,15.39432 -6.14062,21.21874 -3.70866,5.9433 -8.4405,8.91406 -14.19532,8.91406 -6.90578,0 -12.97938,-3.4456 -18.22266,-10.33984 -4.9875,-7.13196 -7.48046,-15.63412 -7.48046,-25.5 0,-7.96402 1.98088,-14.73752 5.94532,-20.32422 3.70866,-5.5867 8.31344,-8.3789 13.8125,-8.3789 z"
     style="stroke-width:1.99999" />
</svg>
