<?xml version="1.0" encoding="UTF-8" standalone="no"?>
<!-- Created with Inkscape (http://www.inkscape.org/) -->

<svg
   width="554.4"
   height="649.6"
   version="1.1"
   viewBox="0 0 554.4 649.6"
   id="svg93"
   sodipodi:docname="Fox-vector-logo.svg"
   inkscape:version="1.1.2 (0a00cf5339, 2022-02-04)"
   xmlns:inkscape="http://www.inkscape.org/namespaces/inkscape"
   xmlns:sodipodi="http://sodipodi.sourceforge.net/DTD/sodipodi-0.dtd"
   xmlns="http://www.w3.org/2000/svg"
   xmlns:svg="http://www.w3.org/2000/svg"
   xmlns:rdf="http://www.w3.org/1999/02/22-rdf-syntax-ns#"
   xmlns:cc="http://creativecommons.org/ns#"
   xmlns:dc="http://purl.org/dc/elements/1.1/">
  <sodipodi:namedview
     id="namedview6"
     pagecolor="#ffffff"
     bordercolor="#666666"
     borderopacity="1.0"
     inkscape:pageshadow="2"
     inkscape:pageopacity="0.0"
     inkscape:pagecheckerboard="0"
     showgrid="false"
     inkscape:zoom="1.3839286"
     inkscape:cx="277.47096"
     inkscape:cy="324.79999"
     inkscape:window-width="2560"
     inkscape:window-height="1324"
     inkscape:window-x="1920"
     inkscape:window-y="27"
     inkscape:window-maximized="1"
     inkscape:current-layer="svg93" />
  <defs
     id="defs97" />
  <metadata
     id="metadata89">
    <rdf:RDF>
      <cc:Work
         rdf:about="">
        <dc:format>image/svg+xml</dc:format>
        <dc:type
           rdf:resource="http://purl.org/dc/dcmitype/StillImage" />
      </cc:Work>
    </rdf:RDF>
  </metadata>
  <path
     id="path91"
     d="M 397.04102 158.18555 L 389.68359 162.53906 L 383.29297 166.67578 L 365.70508 178.60156 L 350.36328 189.85938 L 337.91211 199.03711 L 310.5957 221.68164 L 296.19727 236.16602 L 288.04688 246.29102 L 288.04688 247.10938 L 294.31445 242.00781 L 308.48242 233.44531 L 314.47852 230.19531 L 322.53711 226.42578 L 330.28125 223.76758 L 335.5 222.69922 L 336.00391 223.11914 L 331.06641 233.04492 L 329.62891 237.5918 L 328.19336 242.13672 L 328.23438 252.5918 L 329.62305 257.2207 L 331.00977 261.84766 L 335.36523 269.59766 L 342.16406 277.87891 L 349.10156 283.86914 L 348.81055 283.9707 L 336.27539 290.94727 L 327.01172 297.07031 L 316.1875 306.23438 L 306.25586 316.23633 L 299.61523 323.96484 L 294.21289 330.7832 L 284.38086 344.42188 L 277.0293 355.55859 L 268.08398 355.55859 L 266.27734 352.60352 L 262.11328 346.24023 L 255.68945 336.69336 L 248.16602 326.69141 L 240.125 317.14453 L 234.19922 310.95508 L 223.52734 301.23438 L 215.29492 294.97266 L 206.57422 289.32812 L 196.97461 284.46875 L 196.36133 283.64258 L 202.29492 278.50391 L 206.91211 273.76758 L 212.39648 265.81641 L 215.56641 259.16016 L 217.19727 250.77539 L 217.20117 243.39258 L 216.40039 239.58398 L 215.59961 235.77344 L 212.38477 228.5 L 209.57227 223.24609 L 209.57227 222.7168 L 211.51953 223.01953 L 213.46484 223.32422 L 221.83398 226.11133 L 229.18555 229.19141 L 242.96875 236.9668 L 251.80859 242.55664 L 257.53125 247.04297 L 257.53125 246.38281 L 255.50391 243.80664 L 253.47852 241.22852 L 248.04297 234.86328 L 236.62109 223.5 L 230.04297 217.58984 L 212.02539 202.58398 L 200.58203 193.87305 L 184.77734 182.10156 L 168.42773 170.70117 L 160.79883 165.77344 L 148.875 158.28516 L 148.45898 158.63281 L 163.00781 176.67578 L 171.24023 187.58594 L 174.53516 192.13086 L 179.66992 199.69141 L 187.52539 213.04297 L 189.85938 217.94141 L 192.19336 222.83789 L 195.88281 232.13672 L 198.76367 242.11914 L 199.06641 246.91992 L 199.37109 251.72266 L 198.10742 257.76953 L 194.92188 264.29883 L 190.86133 269.41211 L 184.23242 275.19141 L 177.69336 279.52148 L 163.95312 287.20898 L 172.24414 289.3457 L 181.33203 292.42383 L 187.50195 295.20508 L 195.13281 299.31641 L 204.37891 305.32617 L 217.47656 316.24414 L 226.33203 325.7832 L 236.5918 338.51172 L 242.48438 346.69336 L 254.57422 366.69531 L 261.26172 380.33398 L 264.42383 387.15234 L 270.76367 403.51758 L 270.91406 403.61914 L 260.00391 403.61914 L 260.00391 405.40234 L 261.82617 405.40234 C 263.42473 405.40234 264.86373 405.8772 266.14258 406.82812 C 267.29354 407.77905 267.86914 408.93773 267.86914 410.30469 L 267.86914 450.15625 C 267.86914 451.34491 267.29354 452.35544 266.14258 453.1875 C 264.86373 453.96013 263.42473 454.3457 261.82617 454.3457 L 260.00391 454.3457 L 260.00391 455.94922 L 260.00391 456.03906 L 284.55664 456.03906 L 284.55664 454.3457 L 282.83203 454.3457 C 281.16953 454.3457 279.73053 453.96013 278.51562 453.1875 C 277.36466 452.35544 276.78906 451.34491 276.78906 450.15625 L 276.78906 410.30469 C 276.78906 408.93773 277.36466 407.77905 278.51562 406.82812 C 279.73053 405.8772 281.16953 405.40234 282.83203 405.40234 L 284.55664 405.40234 L 284.55664 403.61914 L 274.75977 403.61914 L 276.74023 398.06445 L 281.08398 387.1543 L 284.82031 378.9707 L 287.32422 373.9707 L 289.82617 368.9707 L 300.54297 350.78711 L 308.29492 339.42188 L 314.45703 331.23828 L 322.56445 322.14648 L 331.50586 313.05469 L 342.81641 303.94922 L 351.30859 298.65625 L 358.22852 295.14844 L 367.88477 291.04102 L 380.77539 287.45117 L 381.05273 287.2207 L 381.32812 286.99023 L 365.16016 278.13867 L 356.05273 270.77734 L 353.65625 267.99023 L 351.25977 265.20312 L 347.60352 258.50391 L 346.35938 252.51953 L 346.36328 249.14648 L 346.36523 245.77539 L 347.17969 241.26953 L 347.99414 236.76367 L 348.89062 234.22266 L 349.78516 231.68164 L 351.5918 227.13672 L 353.39648 222.58984 L 356.54688 215.77148 L 361.52344 206.67969 L 365.76953 199.86133 L 372.57422 189.85938 L 378.20703 182.13086 L 397.04102 158.62109 L 397.04102 158.18555 z M 323.10547 283.27539 L 317.20312 285.00781 L 310.02344 287.76562 L 303.03516 291.18164 L 297.85938 295.21875 L 297.35938 296.86133 L 296.85742 298.50586 L 296.49609 299.98242 L 296.13672 301.46094 L 298.20508 301.46094 L 303.7207 300.09375 L 308.79297 297.72852 L 314.79297 293.15625 L 323.47461 283.58398 L 323.28906 283.42969 L 323.10547 283.27539 z M 222.56836 283.65039 L 222.31445 283.86328 L 222.05859 284.07617 L 228.63281 291.35352 L 237.51953 298.32812 L 242.8125 300.56445 L 244.85742 300.9668 L 246.9043 301.36914 L 250.01758 301.46094 L 249.76562 300.89258 L 249.51562 300.32422 L 248.61328 298.03711 L 247.71289 295.75 L 244.34766 292.34375 L 238.01758 288.75781 L 228.91992 284.79883 L 222.56836 283.65039 z M 170.80469 402.10352 C 167.09603 402.10352 163.73771 403.5889 160.73242 406.56055 C 157.91896 409.5322 156.51367 412.95131 156.51367 416.81445 L 156.51367 420.20117 L 149.51172 420.20117 L 149.51172 422.78711 L 156.51367 422.78711 L 156.51367 450.15625 C 156.51367 451.34491 156.03335 452.35544 155.07422 453.1875 C 153.9872 453.96013 152.74072 454.3457 151.33398 454.3457 L 149.51172 454.3457 L 149.51172 455.94922 L 149.51172 456.03906 L 171.85938 456.03906 L 171.85938 454.3457 L 170.03711 454.3457 C 168.37461 454.3457 166.90385 453.96013 165.625 453.1875 C 164.53798 452.35544 163.99414 451.34491 163.99414 450.15625 L 163.99414 422.78711 L 174.06445 422.78711 L 174.06445 420.20117 L 163.99414 420.20117 L 163.99414 408.87891 C 163.99414 407.74968 164.37722 406.76956 165.14453 405.9375 C 165.91184 405.10544 166.87247 404.68945 168.02344 404.68945 C 168.98257 404.68945 169.90949 404.92688 170.80469 405.40234 C 171.63594 405.93724 172.37034 406.62106 173.00977 407.45312 C 173.58525 408.40405 174.19261 409.11633 174.83203 409.5918 C 175.59934 410.24556 176.3357 410.57227 177.03906 410.57227 C 177.93426 410.57227 178.70042 410.24556 179.33984 409.5918 C 180.04321 409.0569 180.39648 408.31421 180.39648 407.36328 C 180.39648 405.93689 179.40409 404.68893 177.42188 403.61914 C 175.63149 402.60878 173.42633 402.10352 170.80469 402.10352 z M 376.05859 402.54883 C 367.23454 402.54883 360.20226 405.16443 354.95898 410.39453 C 349.65177 415.68407 346.99805 422.63807 346.99805 431.25586 C 346.99805 439.21988 349.65177 445.60976 354.95898 450.42383 C 360.20226 455.17847 367.17102 457.55469 375.86719 457.55469 C 381.04652 457.55469 385.65132 456.63344 389.67969 454.79102 C 393.96383 452.94859 397.28843 450.30454 399.6543 446.85742 L 397.83203 445.51953 C 395.01857 448.13458 391.82101 450.12523 388.24023 451.49219 C 384.7234 452.85915 381.20628 453.54297 377.68945 453.54297 C 371.48704 453.54297 366.53092 451.55232 362.82227 447.57031 C 359.04966 443.41 357.16406 437.97179 357.16406 431.25586 C 357.16406 423.70787 358.98614 417.61624 362.63086 412.98047 C 366.14769 408.40413 370.87953 406.11523 376.82617 406.11523 C 380.85454 406.11523 384.59594 407.42401 388.04883 410.03906 C 391.56566 412.65411 394.1539 416.18901 395.81641 420.64648 L 398.11914 420.64648 L 397.35156 402.81641 L 394.57031 402.81641 C 394.44243 403.5296 394.02759 404.06528 393.32422 404.42188 C 392.68479 404.89734 391.88492 405.13477 390.92578 405.13477 C 390.41424 405.13477 389.136 404.71878 387.08984 403.88672 L 385.8418 403.61914 C 383.85958 402.90594 380.5985 402.54883 376.05859 402.54883 z M 285.13281 403.61914 L 285.13281 405.40234 L 286.95508 405.40234 C 287.72239 405.40234 289.44919 406.88773 292.13477 409.85938 L 292.99805 410.75195 L 292.99805 448.01562 C 292.99805 449.73918 292.39069 451.22456 291.17578 452.47266 C 289.96088 453.72075 288.55364 454.3457 286.95508 454.3457 L 285.13281 454.3457 L 285.13281 455.94922 L 285.13281 456.03906 L 304.98633 456.03906 L 304.98633 454.3457 L 303.16406 454.3457 C 301.50156 454.3457 300.0308 453.72075 298.75195 452.47266 C 297.53705 451.22456 296.92969 449.73918 296.92969 448.01562 L 296.92969 415.20898 L 334.43359 457.19922 L 336.25586 457.19922 L 336.25586 411.01953 C 336.25586 409.53371 336.79774 408.19647 337.88477 407.00781 C 339.09967 405.93802 340.57043 405.40234 342.29688 405.40234 L 344.02344 405.40234 L 344.02344 403.61914 L 324.8418 403.61914 L 324.8418 405.40234 L 326.66406 405.40234 C 328.26262 405.40234 329.57262 405.93802 330.5957 407.00781 C 331.81061 408.19647 332.41797 409.53371 332.41797 411.01953 L 332.41797 440.61719 L 299.9043 403.61914 L 285.13281 403.61914 z M 196.70117 419.48828 C 191.4579 419.48828 187.01386 421.27191 183.36914 424.83789 C 179.66048 428.4633 177.80664 432.7713 177.80664 437.76367 C 177.80664 443.05321 179.66048 447.57017 183.36914 451.31445 C 187.01386 454.9993 191.39437 456.8418 196.50977 456.8418 C 201.88093 456.8418 206.45201 454.9993 210.22461 451.31445 C 213.80538 447.57017 215.5957 443.05321 215.5957 437.76367 C 215.5957 432.7713 213.80538 428.4633 210.22461 424.83789 C 206.45201 421.27191 201.94445 419.48828 196.70117 419.48828 z M 220.67969 420.20117 L 220.67969 422.07422 C 221.89459 422.07422 223.17283 422.42938 224.51562 423.14258 C 225.79447 423.91521 227.00919 424.98656 228.16016 426.35352 L 235.92969 437.49609 L 226.14648 450.68945 C 225.44312 451.81868 224.57972 452.71147 223.55664 453.36523 C 222.53356 454.019 221.31884 454.3457 219.91211 454.3457 L 219.91211 455.94922 L 219.91211 456.03906 L 232.76367 456.03906 L 232.76367 454.3457 L 230.94141 454.3457 C 230.62169 454.3457 230.33389 454.22601 230.07812 453.98828 C 229.82236 453.69112 229.69531 453.39482 229.69531 453.09766 C 229.69531 452.68163 229.75883 452.2941 229.88672 451.9375 C 230.0146 451.5809 230.20712 451.2542 230.46289 450.95703 L 237.94336 440.34961 L 245.32812 450.95703 C 245.71178 451.37306 245.99958 451.76059 246.19141 452.11719 C 246.38323 452.47379 246.48047 452.80049 246.48047 453.09766 C 246.48047 453.39482 246.25619 453.69112 245.80859 453.98828 C 245.42494 454.22601 244.91286 454.3457 244.27344 454.3457 L 242.54688 454.3457 L 242.54688 456.03906 L 259.33203 456.03906 L 259.33203 454.3457 C 258.56472 454.3457 257.70132 454.019 256.74219 453.36523 C 255.78305 452.7709 254.79261 451.87811 253.76953 450.68945 L 242.25977 434.19727 L 248.01367 426.35352 C 248.97281 424.98656 250.09225 423.91521 251.37109 423.14258 C 252.64994 422.42938 253.99366 422.07422 255.40039 422.07422 L 255.40039 420.20117 L 242.54688 420.20117 L 242.54688 422.07422 L 244.27344 422.07422 C 244.59315 422.07422 244.84919 422.16154 245.04102 422.33984 C 245.23284 422.51814 245.32812 422.72711 245.32812 422.96484 C 245.32812 423.73747 244.94504 424.80687 244.17773 426.17383 L 240.05469 431.79102 L 236.4082 426.17383 L 235.44922 424.57031 C 235.19345 424.15428 235.06641 423.88644 235.06641 423.76758 C 235.06641 423.29211 235.29068 422.90459 235.73828 422.60742 C 236.18588 422.25082 236.696 422.07422 237.27148 422.07422 L 238.99805 422.07422 L 238.99805 420.20117 L 220.67969 420.20117 z M 195.16602 422.07422 C 198.74679 422.07422 201.81535 423.73816 204.37305 427.06641 C 206.99469 430.39465 208.30664 434.46522 208.30664 439.2793 C 208.30664 443.43961 207.28248 446.97646 205.23633 449.88867 C 203.382 452.86032 201.01608 454.3457 198.13867 454.3457 C 194.68578 454.3457 191.64898 452.6229 189.02734 449.17578 C 186.53359 445.6098 185.28711 441.35872 185.28711 436.42578 C 185.28711 432.44377 186.27755 429.05702 188.25977 426.26367 C 190.1141 423.47032 192.41649 422.07422 195.16602 422.07422 z " />
</svg>
